<svg width="262" height="128" viewBox="0 0 262 128" fill="none" xmlns="http://www.w3.org/2000/svg">
<path d="M66.9403 30.2811C66.9403 34.3766 66.0004 38.1364 64.1205 41.5605C62.2406 44.9175 59.3536 47.6367 55.4595 49.718C51.5654 51.7993 46.7313 52.84 40.9573 52.84H30.2821V78.2188H13.0608V7.52079H40.9573C46.597 7.52079 51.3639 8.49431 55.258 10.4414C59.1521 12.3884 62.0727 15.074 64.0198 18.4981C65.9668 21.9222 66.9403 25.8499 66.9403 30.2811ZM39.6481 39.1435C42.9379 39.1435 45.3885 38.3714 46.9999 36.8272C48.6112 35.283 49.4169 33.101 49.4169 30.2811C49.4169 27.4612 48.6112 25.2792 46.9999 23.735C45.3885 22.1908 42.9379 21.4187 39.6481 21.4187H30.2821V39.1435H39.6481Z" fill="#062C7F"/>
<path d="M101.486 78.9237C96.3162 78.9237 91.6836 78.0845 87.5881 76.406C83.4926 74.7275 80.2028 72.2433 77.7186 68.9535C75.3016 65.6637 74.0259 61.7024 73.8916 57.0698H92.2207C92.4893 59.6882 93.3957 61.7024 94.9399 63.1123C96.4841 64.4551 98.4983 65.1265 100.982 65.1265C103.534 65.1265 105.548 64.5558 107.025 63.4145C108.502 62.206 109.241 60.561 109.241 58.4797C109.241 56.7341 108.636 55.2906 107.428 54.1492C106.286 53.0078 104.843 52.0679 103.097 51.3294C101.419 50.5908 99.0018 49.7516 95.8463 48.8116C91.2808 47.4017 87.5545 45.9918 84.6675 44.5818C81.7805 43.1719 79.2964 41.0906 77.215 38.3378C75.1337 35.5851 74.093 31.9932 74.093 27.5619C74.093 20.9823 76.4765 15.8461 81.2434 12.1534C86.0103 8.3936 92.2207 6.5137 99.8746 6.5137C107.663 6.5137 113.94 8.3936 118.707 12.1534C123.474 15.8461 126.026 21.0158 126.361 27.6627H107.73C107.596 25.3799 106.756 23.6007 105.212 22.3251C103.668 20.9823 101.687 20.3109 99.2704 20.3109C97.1891 20.3109 95.5106 20.8816 94.2349 22.0229C92.9593 23.0972 92.3214 24.6749 92.3214 26.7563C92.3214 29.039 93.3957 30.8182 95.5441 32.0939C97.6926 33.3695 101.05 34.7459 105.615 36.223C110.181 37.7672 113.873 39.2442 116.693 40.6542C119.58 42.0641 122.064 44.1119 124.146 46.7974C126.227 49.483 127.268 52.9407 127.268 57.1705C127.268 61.1989 126.227 64.858 124.146 68.1478C122.131 71.4377 119.177 74.0561 115.283 76.0031C111.389 77.9502 106.79 78.9237 101.486 78.9237ZM155.087 21.318V35.6187H178.149V48.9123H155.087V64.4216H181.171V78.2188H137.866V7.52079H181.171V21.318H155.087ZM225.786 78.9237C219.14 78.9237 213.03 77.3795 207.457 74.2911C201.952 71.2027 197.554 66.9057 194.264 61.4003C191.042 55.8277 189.43 49.5837 189.43 42.6684C189.43 35.753 191.042 29.5426 194.264 24.0371C197.554 18.5317 201.952 14.2347 207.457 11.1463C213.03 8.05791 219.14 6.5137 225.786 6.5137C232.433 6.5137 238.509 8.05791 244.015 11.1463C249.587 14.2347 253.952 18.5317 257.107 24.0371C260.33 29.5426 261.941 35.753 261.941 42.6684C261.941 49.5837 260.33 55.8277 257.107 61.4003C253.884 66.9057 249.52 71.2027 244.015 74.2911C238.509 77.3795 232.433 78.9237 225.786 78.9237ZM225.786 63.2131C231.426 63.2131 235.925 61.3331 239.282 57.5733C242.706 53.8135 244.418 48.8452 244.418 42.6684C244.418 36.4244 242.706 31.456 239.282 27.7634C235.925 24.0035 231.426 22.1236 225.786 22.1236C220.08 22.1236 215.514 23.97 212.09 27.6627C208.733 31.3553 207.055 36.3572 207.055 42.6684C207.055 48.9123 208.733 53.9142 212.09 57.674C215.514 61.3667 220.08 63.2131 225.786 63.2131Z" fill="white"/>
<path d="M88.2133 89.2924C92.0991 87.6775 97.756 84.6042 98.4806 83.6093C97.8611 83.8988 97.2429 84.1917 96.622 84.4771C90.3362 87.3666 83.8185 89.0871 77.0195 89.4299C73.1442 89.6252 69.3156 89.229 65.561 88.1872C60.5483 86.7964 56.0541 84.2155 52.1325 80.4138C50.9833 79.2997 49.9101 78.1028 48.8809 76.8513C48.538 76.4343 48.5332 76.1594 48.953 75.7942C49.8104 75.0482 50.6311 74.2489 51.4623 73.4655C51.601 73.3348 51.788 73.2452 51.8545 72.8872C47.0941 70.902 42.3203 68.9112 37.3719 66.8475C38.2496 72.6576 39.1025 78.3034 39.9518 83.9257C40.2753 83.9801 40.3983 83.7633 40.5503 83.6223C41.2858 82.9397 42.0293 82.2666 42.7426 81.5557C43.0958 81.2037 43.3448 81.2223 43.6924 81.5796C45.782 83.727 48.0414 85.6231 50.4826 87.2408C55.1255 90.3175 60.1448 92.1609 65.4875 92.8385C70.9492 93.5312 76.3472 92.9687 81.6804 91.5237C83.8837 90.9267 86.047 90.1838 88.2133 89.2924Z" fill="#062C7F"/>
<path d="M125.845 112.048H122.562L132.057 86.1893H135.289L144.784 112.048H141.501L133.774 90.2802H133.572L125.845 112.048ZM127.057 101.947H140.289V104.725H127.057V101.947ZM156.236 119.725C154.797 119.725 153.559 119.539 152.524 119.169C151.489 118.807 150.626 118.327 149.936 117.73C149.254 117.14 148.711 116.509 148.307 115.836L150.681 114.169C150.95 114.523 151.291 114.927 151.703 115.381C152.116 115.844 152.68 116.244 153.395 116.581C154.119 116.926 155.066 117.098 156.236 117.098C157.802 117.098 159.094 116.72 160.112 115.962C161.131 115.204 161.64 114.018 161.64 112.401V108.462H161.388C161.169 108.816 160.857 109.253 160.453 109.775C160.058 110.289 159.485 110.747 158.736 111.151C157.995 111.547 156.994 111.745 155.731 111.745C154.165 111.745 152.76 111.374 151.514 110.634C150.277 109.893 149.296 108.816 148.572 107.401C147.856 105.987 147.499 104.27 147.499 102.25C147.499 100.263 147.848 98.5335 148.547 97.0605C149.245 95.579 150.218 94.4342 151.463 93.6261C152.709 92.8096 154.149 92.4014 155.782 92.4014C157.044 92.4014 158.046 92.6118 158.787 93.0327C159.536 93.4452 160.108 93.9165 160.504 94.4468C160.908 94.9687 161.219 95.398 161.438 95.7347H161.741V92.6539H164.62V112.603C164.62 114.27 164.241 115.625 163.484 116.669C162.734 117.721 161.724 118.491 160.453 118.98C159.191 119.476 157.785 119.725 156.236 119.725ZM156.135 109.068C157.33 109.068 158.34 108.794 159.165 108.247C159.99 107.7 160.617 106.913 161.047 105.886C161.476 104.859 161.691 103.63 161.691 102.199C161.691 100.802 161.48 99.5689 161.059 98.4999C160.638 97.4308 160.016 96.5933 159.191 95.9872C158.366 95.3812 157.347 95.0782 156.135 95.0782C154.872 95.0782 153.82 95.398 152.979 96.0378C152.145 96.6775 151.518 97.5361 151.097 98.6135C150.685 99.6909 150.479 100.886 150.479 102.199C150.479 103.546 150.689 104.737 151.11 105.773C151.539 106.8 152.17 107.608 153.004 108.197C153.846 108.778 154.889 109.068 156.135 109.068ZM178.206 112.452C176.337 112.452 174.725 112.039 173.37 111.215C172.023 110.381 170.984 109.22 170.251 107.73C169.527 106.231 169.165 104.489 169.165 102.502C169.165 100.516 169.527 98.765 170.251 97.2499C170.984 95.7263 172.002 94.5394 173.307 93.6893C174.62 92.8307 176.152 92.4014 177.903 92.4014C178.913 92.4014 179.91 92.5697 180.895 92.9064C181.88 93.2431 182.777 93.7903 183.585 94.5479C184.393 95.297 185.037 96.2903 185.516 97.5277C185.996 98.765 186.236 100.289 186.236 102.098V103.361H171.287V100.785H183.206C183.206 99.6909 182.987 98.7145 182.549 97.8559C182.12 96.9973 181.505 96.3197 180.706 95.8231C179.915 95.3265 178.98 95.0782 177.903 95.0782C176.716 95.0782 175.689 95.3728 174.822 95.962C173.963 96.5428 173.303 97.3004 172.84 98.2347C172.377 99.1691 172.145 100.171 172.145 101.24V102.957C172.145 104.422 172.398 105.663 172.903 106.682C173.416 107.692 174.128 108.462 175.037 108.992C175.946 109.514 177.002 109.775 178.206 109.775C178.989 109.775 179.696 109.666 180.327 109.447C180.967 109.22 181.518 108.883 181.981 108.437C182.444 107.982 182.802 107.418 183.054 106.745L185.933 107.553C185.63 108.529 185.121 109.388 184.405 110.129C183.69 110.861 182.806 111.433 181.754 111.846C180.702 112.25 179.519 112.452 178.206 112.452ZM193.749 100.381V112.048H190.769V92.6539H193.648V95.6842H193.9C194.355 94.6994 195.045 93.9081 195.971 93.3105C196.897 92.7044 198.092 92.4014 199.557 92.4014C200.87 92.4014 202.019 92.6707 203.004 93.2095C203.989 93.7398 204.755 94.5479 205.302 95.6337C205.849 96.7112 206.122 98.0748 206.122 99.7246V112.048H203.143V99.9266C203.143 98.4031 202.747 97.2162 201.956 96.366C201.165 95.5074 200.079 95.0782 198.698 95.0782C197.747 95.0782 196.897 95.2844 196.148 95.6968C195.407 96.1093 194.822 96.7112 194.393 97.5024C193.963 98.2936 193.749 99.2532 193.749 100.381ZM219.446 112.452C217.628 112.452 216.062 112.023 214.749 111.164C213.436 110.305 212.426 109.123 211.719 107.616C211.012 106.109 210.658 104.388 210.658 102.452C210.658 100.482 211.02 98.744 211.744 97.2372C212.477 95.7221 213.495 94.5394 214.8 93.6893C216.113 92.8307 217.645 92.4014 219.396 92.4014C220.759 92.4014 221.988 92.6539 223.083 93.159C224.177 93.664 225.073 94.3711 225.772 95.2802C226.471 96.1893 226.904 97.2499 227.073 98.462H224.093C223.866 97.5782 223.36 96.7953 222.578 96.1135C221.803 95.4233 220.759 95.0782 219.446 95.0782C218.285 95.0782 217.266 95.3812 216.391 95.9872C215.524 96.5849 214.846 97.4308 214.358 98.5251C213.878 99.611 213.638 100.886 213.638 102.351C213.638 103.849 213.874 105.154 214.345 106.265C214.825 107.376 215.499 108.239 216.366 108.853C217.241 109.468 218.268 109.775 219.446 109.775C220.221 109.775 220.924 109.64 221.555 109.371C222.186 109.102 222.721 108.715 223.158 108.209C223.596 107.704 223.908 107.098 224.093 106.391H227.073C226.904 107.536 226.488 108.567 225.823 109.485C225.166 110.394 224.295 111.118 223.209 111.656C222.132 112.187 220.877 112.452 219.446 112.452ZM233.348 119.321C232.843 119.321 232.392 119.278 231.997 119.194C231.601 119.119 231.328 119.043 231.176 118.967L231.934 116.341C232.658 116.526 233.297 116.593 233.853 116.543C234.408 116.492 234.901 116.244 235.33 115.798C235.768 115.36 236.168 114.649 236.53 113.664L237.085 112.149L229.913 92.6539H233.146L238.499 108.108H238.701L244.055 92.6539H247.287L239.055 114.876C238.685 115.878 238.226 116.707 237.679 117.364C237.132 118.028 236.496 118.521 235.772 118.841C235.057 119.161 234.249 119.321 233.348 119.321Z" fill="white"/>
</svg>
