<svg width="163" height="81" viewBox="0 0 163 81" fill="none" xmlns="http://www.w3.org/2000/svg">
<g opacity="0.4">
<path d="M37.7998 19.2521C37.7998 21.827 37.2088 24.1908 36.0269 26.3435C34.845 28.4541 33.0299 30.1636 30.5817 31.4721C28.1335 32.7807 25.0943 33.4349 21.4642 33.4349H14.7526V49.3906H3.92556V4.94262H21.4642C25.0099 4.94262 28.0068 5.55468 30.4551 6.77879C32.9033 8.0029 34.7395 9.69134 35.9636 11.8441C37.1877 13.9968 37.7998 16.4662 37.7998 19.2521ZM20.641 24.8239C22.7094 24.8239 24.2501 24.3385 25.2631 23.3676C26.2762 22.3968 26.7827 21.0249 26.7827 19.2521C26.7827 17.4792 26.2762 16.1074 25.2631 15.1365C24.2501 14.1657 22.7094 13.6803 20.641 13.6803H14.7526V24.8239H20.641Z" fill="#2563EB"/>
<path d="M59.5187 49.8338C56.2685 49.8338 53.3559 49.3062 50.7811 48.2509C48.2062 47.1957 46.1379 45.6339 44.5761 43.5655C43.0565 41.4972 42.2545 39.0068 42.1701 36.0942H53.6936C53.8625 37.7404 54.4323 39.0068 55.4032 39.8932C56.374 40.7374 57.6403 41.1595 59.2021 41.1595C60.8061 41.1595 62.0725 40.8007 63.0011 40.0831C63.9297 39.3233 64.3941 38.2892 64.3941 36.9806C64.3941 35.8832 64.0142 34.9756 63.2544 34.258C62.5368 33.5405 61.6292 32.9495 60.5318 32.4852C59.4765 32.0209 57.9569 31.4932 55.973 30.9023C53.1027 30.0159 50.76 29.1294 48.9449 28.243C47.1298 27.3566 45.568 26.048 44.2595 24.3174C42.951 22.5867 42.2967 20.3285 42.2967 17.5426C42.2967 13.4059 43.7952 10.1768 46.7921 7.85517C49.7891 5.49136 53.6936 4.30946 58.5056 4.30946C63.4021 4.30946 67.3488 5.49136 70.3458 7.85517C73.3428 10.1768 74.9468 13.427 75.1578 17.6059H63.4443C63.3599 16.1707 62.8323 15.0521 61.8614 14.2501C60.8906 13.4059 59.6453 12.9838 58.1257 12.9838C56.8172 12.9838 55.7619 13.3426 54.9599 14.0602C54.1579 14.7355 53.7569 15.7275 53.7569 17.036C53.7569 18.4712 54.4323 19.5898 55.783 20.3918C57.1338 21.1938 59.2443 22.0591 62.1147 22.9878C64.985 23.9586 67.3066 24.8872 69.0795 25.7737C70.8945 26.6601 72.4563 27.9475 73.7649 29.636C75.0734 31.3244 75.7277 33.4982 75.7277 36.1575C75.7277 38.6902 75.0734 40.9907 73.7649 43.059C72.4985 45.1273 70.6413 46.7736 68.193 47.9977C65.7448 49.2218 62.8534 49.8338 59.5187 49.8338ZM93.2178 13.6169V22.6079H107.717V30.9656H93.2178V40.7163H109.617V49.3906H82.3907V4.94262H109.617V13.6169H93.2178ZM137.667 49.8338C133.488 49.8338 129.647 48.863 126.143 46.9213C122.682 44.9796 119.917 42.2781 117.849 38.8168C115.823 35.3133 114.81 31.3877 114.81 27.04C114.81 22.6923 115.823 18.7878 117.849 15.3265C119.917 11.8652 122.682 9.16371 126.143 7.22201C129.647 5.28031 133.488 4.30946 137.667 4.30946C141.846 4.30946 145.666 5.28031 149.127 7.22201C152.631 9.16371 155.374 11.8652 157.358 15.3265C159.384 18.7878 160.397 22.6923 160.397 27.04C160.397 31.3877 159.384 35.3133 157.358 38.8168C155.332 42.2781 152.588 44.9796 149.127 46.9213C145.666 48.863 141.846 49.8338 137.667 49.8338ZM137.667 39.9565C141.212 39.9565 144.041 38.7746 146.151 36.4108C148.304 34.047 149.38 30.9234 149.38 27.04C149.38 23.1144 148.304 19.9908 146.151 17.6692C144.041 15.3054 141.212 14.1235 137.667 14.1235C134.079 14.1235 131.209 15.2843 129.056 17.6059C126.945 19.9275 125.89 23.0722 125.89 27.04C125.89 30.9656 126.945 34.1103 129.056 36.4741C131.209 38.7957 134.079 39.9565 137.667 39.9565Z" fill="black"/>
<path d="M52.5148 57.678C55.0218 56.6349 58.6715 54.6497 59.139 54.007C58.7393 54.194 58.3404 54.3832 57.9398 54.5676C53.8844 56.434 49.6794 57.5454 45.2929 57.7668C42.7926 57.893 40.3225 57.637 37.9001 56.9641C34.6661 56.0657 31.7665 54.3986 29.2364 51.9429C28.495 51.2233 27.8026 50.4502 27.1386 49.6418C26.9174 49.3724 26.9142 49.1948 27.1851 48.9589C27.7383 48.4771 28.2678 47.9608 28.804 47.4547C28.8935 47.3703 29.0142 47.3124 29.0571 47.0812C25.9858 45.7989 22.9058 44.5129 19.7133 43.1799C20.2795 46.9329 20.8298 50.5798 21.3778 54.2114C21.5865 54.2466 21.6659 54.1065 21.7639 54.0155C22.2384 53.5745 22.7181 53.1398 23.1783 52.6805C23.4062 52.4532 23.5668 52.4652 23.7911 52.696C25.1392 54.0831 26.597 55.3079 28.172 56.3528C31.1674 58.3402 34.4057 59.5309 37.8527 59.9686C41.3764 60.416 44.8591 60.0527 48.2999 59.1193C49.7214 58.7337 51.1171 58.2538 52.5148 57.678Z" fill="#2563EB"/>
<path d="M79.119 71.0684H77.0551L83.0246 54.811H85.0568L91.0263 71.0684H88.9624L84.1042 57.383H83.9772L79.119 71.0684ZM79.8811 64.7178H88.2003V66.4642H79.8811V64.7178ZM98.2262 75.8948C97.3213 75.8948 96.5433 75.7783 95.8924 75.5455C95.2415 75.3179 94.699 75.0163 94.2651 74.6405C93.8364 74.2701 93.4951 73.8732 93.241 73.4498L94.7334 72.402C94.9028 72.6242 95.1171 72.8783 95.3764 73.164C95.6357 73.4551 95.9903 73.7065 96.4401 73.9182C96.8952 74.1351 97.4906 74.2436 98.2262 74.2436C99.2105 74.2436 100.023 74.0055 100.663 73.5292C101.304 73.0529 101.624 72.3067 101.624 71.2906V68.8139H101.465C101.327 69.0362 101.132 69.3114 100.878 69.6395C100.629 69.9623 100.269 70.2507 99.798 70.5047C99.3323 70.7535 98.7025 70.8778 97.9087 70.8778C96.9244 70.8778 96.0406 70.645 95.2573 70.1793C94.4794 69.7136 93.8629 69.0362 93.4077 68.1471C92.9579 67.258 92.733 66.1784 92.733 64.9083C92.733 63.6594 92.9526 62.5719 93.3919 61.6458C93.8311 60.7143 94.4424 59.9946 95.2256 59.4866C96.0088 58.9732 96.9138 58.7166 97.9404 58.7166C98.7343 58.7166 99.364 58.8489 99.8297 59.1135C100.301 59.3728 100.661 59.6692 100.909 60.0026C101.163 60.3307 101.359 60.6006 101.497 60.8122H101.687V58.8753H103.497V71.4176C103.497 72.4655 103.259 73.3175 102.783 73.9737C102.312 74.6352 101.677 75.1195 100.878 75.4264C100.084 75.7386 99.2 75.8948 98.2262 75.8948ZM98.1627 69.195C98.9142 69.195 99.5492 69.023 100.068 68.679C100.586 68.335 100.981 67.8402 101.251 67.1945C101.521 66.5489 101.655 65.7762 101.655 64.8766C101.655 63.9981 101.523 63.2228 101.259 62.5507C100.994 61.8786 100.602 61.352 100.084 60.971C99.5651 60.59 98.9248 60.3995 98.1627 60.3995C97.3689 60.3995 96.7074 60.6006 96.1782 61.0028C95.6542 61.405 95.26 61.9448 94.9954 62.6222C94.7361 63.2995 94.6064 64.051 94.6064 64.8766C94.6064 65.7233 94.7387 66.4722 95.0033 67.1231C95.2732 67.7687 95.6701 68.2768 96.194 68.6472C96.7233 69.0124 97.3795 69.195 98.1627 69.195ZM112.039 71.3224C110.864 71.3224 109.85 71.0631 108.998 70.5444C108.152 70.0205 107.498 69.2902 107.038 68.3535C106.582 67.4115 106.355 66.316 106.355 65.0671C106.355 63.8182 106.582 62.7174 107.038 61.7648C107.498 60.807 108.138 60.0608 108.959 59.5263C109.784 58.9865 110.747 58.7166 111.848 58.7166C112.483 58.7166 113.11 58.8224 113.729 59.0341C114.349 59.2458 114.912 59.5898 115.42 60.0661C115.928 60.5371 116.333 61.1615 116.635 61.9395C116.936 62.7174 117.087 63.6753 117.087 64.8131V65.6069H107.689V63.9875H115.182C115.182 63.2995 115.045 62.6857 114.769 62.1459C114.499 61.6061 114.113 61.18 113.61 60.8678C113.113 60.5556 112.525 60.3995 111.848 60.3995C111.102 60.3995 110.456 60.5847 109.911 60.9551C109.371 61.3203 108.956 61.7966 108.665 62.384C108.374 62.9714 108.228 63.6012 108.228 64.2733V65.3529C108.228 66.2737 108.387 67.0543 108.705 67.6946C109.027 68.3297 109.475 68.8139 110.046 69.1473C110.618 69.4754 111.282 69.6395 112.039 69.6395C112.531 69.6395 112.975 69.5707 113.372 69.4331C113.774 69.2902 114.121 69.0785 114.412 68.798C114.703 68.5123 114.928 68.1577 115.087 67.7343L116.897 68.2424C116.706 68.8563 116.386 69.3961 115.936 69.8618C115.486 70.3222 114.931 70.682 114.269 70.9413C113.608 71.1954 112.864 71.3224 112.039 71.3224ZM121.811 63.7335V71.0684H119.937V58.8753H121.747V60.7805H121.906C122.192 60.1613 122.625 59.6639 123.208 59.2881C123.79 58.9071 124.541 58.7166 125.462 58.7166C126.288 58.7166 127.01 58.8859 127.629 59.2246C128.248 59.558 128.73 60.0661 129.074 60.7487C129.418 61.4261 129.59 62.2835 129.59 63.3207V71.0684H127.716V63.4477C127.716 62.4898 127.468 61.7437 126.97 61.2092C126.473 60.6694 125.79 60.3995 124.922 60.3995C124.324 60.3995 123.79 60.5291 123.319 60.7884C122.853 61.0477 122.485 61.4261 122.215 61.9236C121.945 62.421 121.811 63.0244 121.811 63.7335ZM137.967 71.3224C136.824 71.3224 135.839 71.0525 135.014 70.5127C134.188 69.9729 133.553 69.2294 133.108 68.2821C132.664 67.3348 132.442 66.2525 132.442 65.0354C132.442 63.797 132.669 62.7042 133.124 61.7569C133.585 60.8043 134.225 60.0608 135.045 59.5263C135.871 58.9865 136.834 58.7166 137.935 58.7166C138.792 58.7166 139.565 58.8753 140.253 59.1929C140.941 59.5104 141.504 59.9549 141.944 60.5265C142.383 61.098 142.655 61.7648 142.761 62.5269H140.888C140.745 61.9712 140.427 61.4791 139.935 61.0504C139.448 60.6164 138.792 60.3995 137.967 60.3995C137.236 60.3995 136.596 60.59 136.046 60.971C135.501 61.3468 135.075 61.8786 134.768 62.5666C134.466 63.2493 134.315 64.051 134.315 64.9718C134.315 65.9138 134.463 66.7341 134.76 67.4327C135.061 68.1312 135.485 68.6737 136.03 69.06C136.58 69.4463 137.226 69.6395 137.967 69.6395C138.454 69.6395 138.895 69.5548 139.292 69.3855C139.689 69.2161 140.025 68.9727 140.3 68.6552C140.576 68.3376 140.771 67.9566 140.888 67.5121H142.761C142.655 68.2318 142.394 68.8801 141.975 69.4569C141.563 70.0285 141.015 70.4836 140.332 70.8223C139.655 71.1557 138.866 71.3224 137.967 71.3224ZM146.707 75.6407C146.389 75.6407 146.106 75.6143 145.857 75.5614C145.608 75.5137 145.436 75.4661 145.341 75.4185L145.818 73.7673C146.273 73.8838 146.675 73.9261 147.024 73.8943C147.373 73.8626 147.683 73.7065 147.953 73.426C148.228 73.1508 148.479 72.7036 148.707 72.0844L149.056 71.1319L144.547 58.8753H146.58L149.945 68.5917H150.072L153.438 58.8753H155.47L150.295 72.8465C150.062 73.4763 149.773 73.9975 149.429 74.4103C149.085 74.8284 148.686 75.138 148.231 75.3391C147.781 75.5402 147.273 75.6407 146.707 75.6407Z" fill="black"/>
</g>
</svg>
