<svg width="198" height="123" viewBox="0 0 198 123" fill="none" xmlns="http://www.w3.org/2000/svg">
<path d="M45.8474 47.4449C45.8474 50.568 45.1307 53.435 43.6971 56.0461C42.2636 58.606 40.0621 60.6795 37.0926 62.2666C34.1232 63.8538 30.437 64.6473 26.034 64.6473H17.8936V84H4.76137V30.089H26.034C30.3346 30.089 33.9696 30.8313 36.9391 32.316C39.9085 33.8008 42.1356 35.8487 43.6203 38.4598C45.1051 41.0708 45.8474 44.0659 45.8474 47.4449ZM25.0356 54.203C27.5443 54.203 29.413 53.6142 30.6418 52.4367C31.8705 51.2591 32.4849 49.5952 32.4849 47.4449C32.4849 45.2946 31.8705 43.6307 30.6418 42.4532C29.413 41.2756 27.5443 40.6868 25.0356 40.6868H17.8936V54.203H25.0356Z" fill="#062C7F"/>
<path d="M72.1904 84.5376C68.2482 84.5376 64.7155 83.8976 61.5925 82.6177C58.4694 81.3377 55.9607 79.4434 54.0664 76.9347C52.2233 74.4261 51.2506 71.4054 51.1482 67.8728H65.1251C65.3299 69.8695 66.0211 71.4054 67.1986 72.4805C68.3762 73.5045 69.9121 74.0165 71.8064 74.0165C73.7519 74.0165 75.2878 73.5813 76.4142 72.7109C77.5405 71.7894 78.1037 70.535 78.1037 68.9479C78.1037 67.6168 77.6429 66.516 76.7214 65.6457C75.851 64.7753 74.7503 64.0585 73.4191 63.4954C72.1392 62.9322 70.2961 62.2922 67.8898 61.5755C64.4083 60.5003 61.5669 59.4252 59.3654 58.35C57.1639 57.2749 55.2696 55.6877 53.6825 53.5886C52.0953 51.4895 51.3018 48.7505 51.3018 45.3714C51.3018 40.3541 53.1193 36.4375 56.7543 33.6216C60.3893 30.7545 65.1251 29.321 70.9616 29.321C76.9006 29.321 81.6875 30.7545 85.3226 33.6216C88.9576 36.4375 90.9031 40.3797 91.1591 45.4482H76.9518C76.8494 43.7075 76.2094 42.3508 75.0318 41.378C73.8543 40.3541 72.344 39.8421 70.5009 39.8421C68.9137 39.8421 67.6338 40.2773 66.661 41.1476C65.6883 41.9668 65.2019 43.1699 65.2019 44.7571C65.2019 46.4978 66.0211 47.8545 67.6594 48.8273C69.2977 49.8 71.8576 50.8496 75.339 51.9759C78.8205 53.1535 81.6363 54.2798 83.7866 55.355C85.9881 56.4301 87.8824 57.9916 89.4696 60.0395C91.0567 62.0874 91.8503 64.7241 91.8503 67.9496C91.8503 71.0214 91.0567 73.8117 89.4696 76.3204C87.9336 78.829 85.6809 80.8258 82.7115 82.3105C79.742 83.7952 76.235 84.5376 72.1904 84.5376ZM113.064 40.6101V51.5151H130.65V61.6523H113.064V73.4789H132.954V84H99.9319V30.089H132.954V40.6101H113.064ZM166.976 84.5376C161.908 84.5376 157.249 83.36 152.999 81.0049C148.801 78.6499 145.448 75.3732 142.939 71.175C140.482 66.9256 139.253 62.1642 139.253 56.8909C139.253 51.6175 140.482 46.8818 142.939 42.6836C145.448 38.4854 148.801 35.2087 152.999 32.8536C157.249 30.4985 161.908 29.321 166.976 29.321C172.045 29.321 176.678 30.4985 180.876 32.8536C185.126 35.2087 188.454 38.4854 190.86 42.6836C193.317 46.8818 194.546 51.6175 194.546 56.8909C194.546 62.1642 193.317 66.9256 190.86 71.175C188.402 75.3732 185.075 78.6499 180.876 81.0049C176.678 83.36 172.045 84.5376 166.976 84.5376ZM166.976 72.5573C171.277 72.5573 174.707 71.1238 177.267 68.2567C179.878 65.3897 181.184 61.6011 181.184 56.8909C181.184 52.1295 179.878 48.3409 177.267 45.525C174.707 42.658 171.277 41.2244 166.976 41.2244C162.625 41.2244 159.143 42.6324 156.532 45.4482C153.972 48.2641 152.692 52.0783 152.692 56.8909C152.692 61.6523 153.972 65.4665 156.532 68.3335C159.143 71.1494 162.625 72.5573 166.976 72.5573Z" fill="black"/>
<path d="M63.6953 94.9553C66.736 93.6901 71.1628 91.2823 71.7298 90.5028C71.245 90.7296 70.7613 90.9591 70.2754 91.1827C65.3566 93.4465 60.2562 94.7945 54.9358 95.063C51.9033 95.2161 48.9073 94.9056 45.9692 94.0894C42.0466 92.9998 38.5298 90.9777 35.461 87.9992C34.5617 87.1264 33.7219 86.1887 32.9165 85.2081C32.6482 84.8815 32.6444 84.6661 32.9729 84.3799C33.6438 83.7955 34.2861 83.1693 34.9365 82.5555C35.045 82.4531 35.1914 82.3829 35.2435 82.1025C31.5183 80.5471 27.7826 78.9873 23.9103 77.3706C24.5971 81.9225 25.2646 86.3458 25.9292 90.7507C26.1823 90.7933 26.2786 90.6235 26.3975 90.513C26.9731 89.9782 27.5549 89.4509 28.1131 88.8939C28.3894 88.6181 28.5843 88.6327 28.8563 88.9126C30.4915 90.5951 32.2596 92.0806 34.1699 93.348C37.8031 95.7585 41.7308 97.2027 45.9117 97.7336C50.1856 98.2762 54.4098 97.8356 58.5831 96.7035C60.3073 96.2357 62.0001 95.6537 63.6953 94.9553Z" fill="#062C7F"/>
<path d="M105.232 110.513V90.7941H112.125C113.499 90.7941 114.632 91.0316 115.524 91.5066C116.416 91.9752 117.081 92.6074 117.517 93.4034C117.954 94.1929 118.172 95.069 118.172 96.0319C118.172 96.8791 118.021 97.5788 117.719 98.1308C117.424 98.6828 117.033 99.1193 116.545 99.4402C116.063 99.7612 115.54 99.9987 114.975 100.153V100.345C115.579 100.384 116.185 100.596 116.795 100.981C117.405 101.366 117.915 101.918 118.326 102.637C118.737 103.356 118.942 104.235 118.942 105.275C118.942 106.263 118.717 107.152 118.268 107.942C117.819 108.731 117.11 109.357 116.14 109.819C115.171 110.282 113.91 110.513 112.356 110.513H105.232ZM107.619 108.394H112.356C113.916 108.394 115.023 108.093 115.678 107.489C116.339 106.88 116.67 106.141 116.67 105.275C116.67 104.607 116.5 103.991 116.16 103.426C115.819 102.855 115.335 102.399 114.706 102.059C114.077 101.713 113.332 101.539 112.472 101.539H107.619V108.394ZM107.619 99.4595H112.048C112.767 99.4595 113.416 99.3183 113.993 99.0359C114.577 98.7534 115.039 98.3555 115.38 97.842C115.726 97.3285 115.9 96.7251 115.9 96.0319C115.9 95.1653 115.598 94.4304 114.995 93.827C114.391 93.2172 113.435 92.9123 112.125 92.9123H107.619V99.4595ZM131.878 104.466V95.7238H134.15V110.513H131.878V108.009H131.724C131.377 108.76 130.838 109.399 130.106 109.925C129.374 110.445 128.45 110.705 127.333 110.705C126.409 110.705 125.587 110.503 124.868 110.099C124.149 109.688 123.585 109.072 123.174 108.25C122.763 107.422 122.558 106.379 122.558 105.121V95.7238H124.83V104.967C124.83 106.045 125.131 106.905 125.735 107.547C126.345 108.189 127.121 108.51 128.065 108.51C128.63 108.51 129.204 108.366 129.788 108.077C130.379 107.788 130.873 107.345 131.271 106.748C131.675 106.151 131.878 105.39 131.878 104.466ZM138.312 110.513V95.7238H140.584V110.513H138.312ZM139.467 93.2589C139.024 93.2589 138.642 93.1081 138.321 92.8064C138.007 92.5047 137.85 92.1421 137.85 91.7184C137.85 91.2948 138.007 90.9321 138.321 90.6304C138.642 90.3288 139.024 90.1779 139.467 90.1779C139.91 90.1779 140.289 90.3288 140.603 90.6304C140.924 90.9321 141.085 91.2948 141.085 91.7184C141.085 92.1421 140.924 92.5047 140.603 92.8064C140.289 93.1081 139.91 93.2589 139.467 93.2589ZM147.018 90.7941V110.513H144.746V90.7941H147.018ZM156.764 110.821C155.532 110.821 154.444 110.509 153.5 109.887C152.557 109.258 151.818 108.372 151.286 107.229C150.753 106.081 150.487 104.723 150.487 103.157C150.487 101.603 150.753 100.255 151.286 99.1129C151.818 97.9703 152.56 97.0878 153.51 96.4651C154.46 95.8425 155.557 95.5312 156.803 95.5312C157.765 95.5312 158.526 95.6917 159.085 96.0126C159.649 96.3271 160.079 96.6866 160.375 97.091C160.676 97.4889 160.911 97.8163 161.078 98.073H161.27V90.7941H163.542V110.513H161.347V108.24H161.078C160.911 108.51 160.673 108.85 160.365 109.261C160.057 109.665 159.617 110.028 159.046 110.349C158.475 110.664 157.714 110.821 156.764 110.821ZM157.072 108.78C157.984 108.78 158.754 108.542 159.383 108.067C160.012 107.586 160.49 106.921 160.818 106.074C161.145 105.22 161.309 104.235 161.309 103.118C161.309 102.014 161.148 101.048 160.827 100.22C160.506 99.3857 160.031 98.7374 159.402 98.2752C158.773 97.8067 157.997 97.5724 157.072 97.5724C156.109 97.5724 155.307 97.8195 154.665 98.3137C154.03 98.8016 153.552 99.4659 153.231 100.307C152.916 101.141 152.759 102.078 152.759 103.118C152.759 104.171 152.919 105.127 153.24 105.987C153.568 106.841 154.049 107.522 154.684 108.029C155.326 108.529 156.122 108.78 157.072 108.78ZM174.22 110.821C172.795 110.821 171.566 110.506 170.532 109.877C169.505 109.242 168.713 108.356 168.154 107.22C167.602 106.077 167.326 104.749 167.326 103.234C167.326 101.719 167.602 100.384 168.154 99.2284C168.713 98.0666 169.489 97.1616 170.484 96.5133C171.486 95.8586 172.654 95.5312 173.989 95.5312C174.759 95.5312 175.52 95.6596 176.271 95.9163C177.022 96.1731 177.706 96.5903 178.322 97.168C178.938 97.7393 179.429 98.4967 179.795 99.4402C180.161 100.384 180.344 101.546 180.344 102.926V103.888H168.944V101.924H178.033C178.033 101.09 177.866 100.345 177.532 99.6906C177.205 99.0359 176.736 98.5192 176.126 98.1404C175.523 97.7617 174.811 97.5724 173.989 97.5724C173.084 97.5724 172.301 97.797 171.64 98.2464C170.985 98.6892 170.481 99.2669 170.128 99.9794C169.775 100.692 169.599 101.456 169.599 102.271V103.58C169.599 104.697 169.791 105.644 170.176 106.421C170.568 107.191 171.11 107.778 171.803 108.183C172.497 108.581 173.302 108.78 174.22 108.78C174.817 108.78 175.356 108.696 175.838 108.529C176.325 108.356 176.746 108.099 177.099 107.759C177.452 107.412 177.725 106.982 177.917 106.469L180.113 107.085C179.881 107.83 179.493 108.484 178.948 109.049C178.402 109.608 177.728 110.044 176.926 110.359C176.123 110.667 175.221 110.821 174.22 110.821ZM183.8 110.513V95.7238H185.995V97.9575H186.149C186.419 97.2258 186.907 96.632 187.613 96.1763C188.319 95.7205 189.115 95.4927 190.001 95.4927C190.168 95.4927 190.376 95.4959 190.627 95.5023C190.877 95.5087 191.066 95.5184 191.195 95.5312V97.842C191.118 97.8227 190.941 97.7938 190.665 97.7553C190.396 97.7104 190.11 97.6879 189.808 97.6879C189.089 97.6879 188.447 97.8388 187.883 98.1404C187.324 98.4357 186.881 98.8465 186.554 99.3729C186.233 99.8928 186.072 100.487 186.072 101.154V110.513H183.8Z" fill="black"/>
</svg>
