<svg width="163" height="76" viewBox="0 0 163 76" fill="none" xmlns="http://www.w3.org/2000/svg">
<g opacity="0.4">
<path d="M37.8966 19.1222C37.8966 21.7036 37.3042 24.0735 36.1193 26.2317C34.9343 28.3477 33.1146 30.0616 30.6601 31.3735C28.2056 32.6854 25.1586 33.3413 21.5192 33.3413H14.7905V49.3379H3.93569V4.77604H21.5192C25.074 4.77604 28.0787 5.38966 30.5332 6.61691C32.9877 7.84416 34.8285 9.53692 36.0558 11.6952C37.283 13.8535 37.8966 16.3291 37.8966 19.1222ZM20.694 24.7083C22.7676 24.7083 24.3123 24.2216 25.3279 23.2483C26.3436 22.2749 26.8514 20.8996 26.8514 19.1222C26.8514 17.3448 26.3436 15.9694 25.3279 14.9961C24.3123 14.0227 22.7676 13.5361 20.694 13.5361H14.7905V24.7083H20.694Z" fill="#A556F7"/>
<path d="M59.6712 49.7822C56.4127 49.7822 53.4927 49.2533 50.9112 48.1953C48.3298 47.1373 46.2561 45.5715 44.6903 43.4979C43.1668 41.4242 42.3628 38.9274 42.2781 36.0074H53.8312C54.0005 37.6579 54.5718 38.9274 55.5451 39.8161C56.5185 40.6625 57.788 41.0857 59.3538 41.0857C60.962 41.0857 62.2315 40.726 63.1625 40.0066C64.0936 39.2448 64.5591 38.208 64.5591 36.8961C64.5591 35.7958 64.1782 34.886 63.4165 34.1665C62.697 33.4471 61.7872 32.8547 60.6869 32.3892C59.6289 31.9236 58.1054 31.3947 56.1164 30.8022C53.2388 29.9135 50.8901 29.0248 49.0703 28.1361C47.2506 27.2474 45.6848 25.9355 44.3729 24.2004C43.061 22.4654 42.4051 20.2013 42.4051 17.4082C42.4051 13.261 43.9074 10.0236 46.9121 7.69605C49.9167 5.32619 53.8312 4.14125 58.6556 4.14125C63.5646 4.14125 67.5214 5.32619 70.526 7.69605C73.5307 10.0236 75.1388 13.2821 75.3504 17.4717H63.6069C63.5223 16.0329 62.9933 14.9114 62.0199 14.1074C61.0466 13.261 59.7982 12.8378 58.2747 12.8378C56.9628 12.8378 55.9048 13.1975 55.1008 13.9169C54.2967 14.594 53.8947 15.5885 53.8947 16.9004C53.8947 18.3393 54.5718 19.4607 55.926 20.2648C57.2802 21.0688 59.3962 21.9364 62.2739 22.8674C65.1515 23.8407 67.4791 24.7717 69.2565 25.6604C71.0762 26.5491 72.642 27.8399 73.9539 29.5326C75.2658 31.2254 75.9217 33.4048 75.9217 36.0709C75.9217 38.61 75.2658 40.9164 73.9539 42.99C72.6843 45.0637 70.8223 46.7141 68.3678 47.9414C65.9133 49.1686 63.0144 49.7822 59.6712 49.7822ZM93.4566 13.4726V22.4865H107.993V30.8657H93.4566V40.6413H109.898V49.3379H82.6018V4.77604H109.898V13.4726H93.4566ZM138.019 49.7822C133.83 49.7822 129.979 48.8089 126.466 46.8622C122.996 44.9156 120.224 42.2071 118.151 38.737C116.119 35.2245 115.104 31.2889 115.104 26.93C115.104 22.5712 116.119 18.6567 118.151 15.1865C120.224 11.7163 122.996 9.00793 126.466 7.06126C129.979 5.11459 133.83 4.14125 138.019 4.14125C142.209 4.14125 146.039 5.11459 149.509 7.06126C153.022 9.00793 155.772 11.7163 157.761 15.1865C159.793 18.6567 160.808 22.5712 160.808 26.93C160.808 31.2889 159.793 35.2245 157.761 38.737C155.73 42.2071 152.979 44.9156 149.509 46.8622C146.039 48.8089 142.209 49.7822 138.019 49.7822ZM138.019 39.8796C141.574 39.8796 144.41 38.6947 146.526 36.3248C148.684 33.955 149.763 30.8234 149.763 26.93C149.763 22.9943 148.684 19.8627 146.526 17.5352C144.41 15.1653 141.574 13.9804 138.019 13.9804C134.422 13.9804 131.545 15.1442 129.386 17.4717C127.27 19.7993 126.212 22.952 126.212 26.93C126.212 30.8657 127.27 34.0184 129.386 36.3883C131.545 38.7158 134.422 39.8796 138.019 39.8796Z" fill="black"/>
<path d="M53.9392 55.2908C56.4526 54.5504 60.1117 53.1413 60.5803 52.6851C60.1796 52.8179 59.7798 52.9522 59.3781 53.083C55.3123 54.4078 51.0965 55.1967 46.6987 55.3539C44.1921 55.4434 41.7156 55.2618 39.2871 54.7841C36.0448 54.1464 33.1378 52.9631 30.6012 51.22C29.8578 50.7092 29.1637 50.1604 28.498 49.5866C28.2762 49.3954 28.2731 49.2694 28.5446 49.1019C29.0992 48.7599 29.63 48.3934 30.1677 48.0342C30.2574 47.9743 30.3784 47.9332 30.4214 47.7691C27.3422 46.8589 24.2544 45.9461 21.0536 44.9999C21.6214 47.6638 22.173 50.2524 22.7224 52.8302C22.9317 52.8552 23.0112 52.7558 23.1095 52.6911C23.5853 52.3782 24.0662 52.0695 24.5276 51.7436C24.756 51.5822 24.917 51.5907 25.1419 51.7545C26.4935 52.7391 27.955 53.6085 29.534 54.3502C32.5371 55.7608 35.7837 56.6061 39.2396 56.9167C42.7723 57.2343 46.2639 56.9764 49.7135 56.3139C51.1387 56.0402 52.5379 55.6995 53.9392 55.2908Z" fill="#A556F7"/>
<path d="M85.4548 71.1953V54.8963H91.1531C92.2885 54.8963 93.2249 55.0926 93.9624 55.4852C94.6999 55.8725 95.249 56.3952 95.6098 57.0531C95.9706 57.7057 96.151 58.4299 96.151 59.2257C96.151 59.9261 96.0263 60.5044 95.777 60.9607C95.5329 61.417 95.2093 61.7778 94.806 62.043C94.4081 62.3083 93.9757 62.5046 93.5088 62.632V62.7911C94.0075 62.823 94.5089 62.9981 95.0129 63.3164C95.517 63.6347 95.9388 64.091 96.2783 64.6853C96.6179 65.2795 96.7877 66.0064 96.7877 66.8659C96.7877 67.683 96.602 68.4178 96.2306 69.0704C95.8592 69.723 95.2729 70.2403 94.4718 70.6223C93.6706 71.0043 92.628 71.1953 91.3441 71.1953H85.4548ZM87.4285 69.4444H91.3441C92.6334 69.4444 93.5486 69.1951 94.0898 68.6963C94.6362 68.1923 94.9095 67.5822 94.9095 66.8659C94.9095 66.3141 94.7689 65.8048 94.4877 65.3379C94.2065 64.8657 93.8059 64.489 93.2859 64.2078C92.766 63.9212 92.1505 63.778 91.4396 63.778H87.4285V69.4444ZM87.4285 62.059H91.0894C91.6836 62.059 92.2195 61.9422 92.697 61.7088C93.1798 61.4753 93.5618 61.1464 93.843 60.7219C94.1296 60.2975 94.2728 59.7987 94.2728 59.2257C94.2728 58.5095 94.0234 57.902 93.5247 57.4032C93.026 56.8992 92.2354 56.6472 91.1531 56.6472H87.4285V62.059ZM107.48 66.1974V58.9711H109.358V71.1953H107.48V69.1261H107.353C107.066 69.7469 106.62 70.2748 106.016 70.7098C105.411 71.1396 104.647 71.3545 103.724 71.3545C102.96 71.3545 102.28 71.1874 101.686 70.8531C101.092 70.5135 100.625 70.0042 100.285 69.3251C99.9459 68.6406 99.7761 67.7785 99.7761 66.7386V58.9711H101.654V66.6112C101.654 67.5026 101.904 68.2135 102.402 68.7441C102.906 69.2747 103.548 69.5399 104.328 69.5399C104.795 69.5399 105.27 69.4206 105.753 69.1818C106.241 68.9431 106.65 68.577 106.979 68.0835C107.313 67.5901 107.48 66.9614 107.48 66.1974ZM112.798 71.1953V58.9711H114.676V71.1953H112.798ZM113.753 56.9337C113.387 56.9337 113.071 56.809 112.806 56.5596C112.546 56.3103 112.416 56.0105 112.416 55.6603C112.416 55.3101 112.546 55.0104 112.806 54.761C113.071 54.5116 113.387 54.387 113.753 54.387C114.119 54.387 114.432 54.5116 114.692 54.761C114.958 55.0104 115.09 55.3101 115.09 55.6603C115.09 56.0105 114.958 56.3103 114.692 56.5596C114.432 56.809 114.119 56.9337 113.753 56.9337ZM119.995 54.8963V71.1953H118.116V54.8963H119.995ZM128.051 71.45C127.032 71.45 126.133 71.1927 125.353 70.678C124.573 70.1581 123.963 69.4259 123.522 68.4815C123.082 67.5318 122.862 66.4096 122.862 65.115C122.862 63.831 123.082 62.7169 123.522 61.7724C123.963 60.828 124.575 60.0985 125.361 59.5839C126.146 59.0692 127.053 58.8119 128.082 58.8119C128.878 58.8119 129.507 58.9445 129.969 59.2098C130.436 59.4698 130.791 59.7669 131.035 60.1012C131.284 60.4301 131.478 60.7007 131.616 60.9129H131.775V54.8963H133.653V71.1953H131.839V69.3171H131.616C131.478 69.5399 131.282 69.8211 131.027 70.1607C130.772 70.495 130.409 70.7947 129.937 71.06C129.465 71.32 128.836 71.45 128.051 71.45ZM128.305 69.7628C129.059 69.7628 129.695 69.5665 130.215 69.1739C130.735 68.7759 131.131 68.2268 131.401 67.5264C131.672 66.8208 131.807 66.0064 131.807 65.0832C131.807 64.1706 131.674 63.3721 131.409 62.6877C131.144 61.9979 130.751 61.4621 130.231 61.0801C129.711 60.6927 129.069 60.4991 128.305 60.4991C127.509 60.4991 126.846 60.7034 126.316 61.1119C125.79 61.5151 125.395 62.0643 125.13 62.7593C124.87 63.449 124.74 64.2237 124.74 65.0832C124.74 65.9533 124.873 66.7439 125.138 67.4548C125.408 68.1605 125.806 68.7229 126.332 69.142C126.862 69.5559 127.52 69.7628 128.305 69.7628ZM142.479 71.45C141.302 71.45 140.286 71.19 139.431 70.6701C138.582 70.1448 137.927 69.4126 137.466 68.4735C137.009 67.5291 136.781 66.4308 136.781 65.1787C136.781 63.9265 137.009 62.823 137.466 61.868C137.927 60.9076 138.569 60.1595 139.392 59.6237C140.219 59.0825 141.185 58.8119 142.288 58.8119C142.925 58.8119 143.554 58.918 144.175 59.1302C144.795 59.3425 145.36 59.6873 145.87 60.1648C146.379 60.637 146.785 61.2631 147.087 62.043C147.39 62.823 147.541 63.7833 147.541 64.924V65.7199H138.118V64.0963H145.631C145.631 63.4066 145.493 62.7911 145.217 62.25C144.947 61.7088 144.559 61.2817 144.055 60.9686C143.556 60.6556 142.968 60.4991 142.288 60.4991C141.54 60.4991 140.893 60.6848 140.347 61.0562C139.805 61.4223 139.389 61.8998 139.097 62.4887C138.805 63.0776 138.659 63.709 138.659 64.3828V65.4652C138.659 66.3884 138.819 67.171 139.137 67.813C139.46 68.4496 139.909 68.9351 140.482 69.2694C141.055 69.5983 141.721 69.7628 142.479 69.7628C142.973 69.7628 143.419 69.6938 143.816 69.5559C144.22 69.4126 144.567 69.2004 144.859 68.9192C145.151 68.6327 145.376 68.2772 145.535 67.8527L147.35 68.3621C147.159 68.9775 146.838 69.5187 146.387 69.9856C145.936 70.4472 145.379 70.808 144.716 71.068C144.053 71.3226 143.307 71.45 142.479 71.45ZM150.398 71.1953V58.9711H152.213V60.8174H152.34C152.563 60.2126 152.966 59.7218 153.55 59.3451C154.133 58.9684 154.791 58.7801 155.523 58.7801C155.661 58.7801 155.834 58.7827 156.041 58.788C156.248 58.7933 156.404 58.8013 156.51 58.8119V60.7219C156.447 60.706 156.301 60.6821 156.073 60.6503C155.85 60.6132 155.614 60.5946 155.364 60.5946C154.77 60.5946 154.239 60.7193 153.773 60.9686C153.311 61.2127 152.945 61.5523 152.674 61.9873C152.409 62.4171 152.276 62.9079 152.276 63.4597V71.1953H150.398Z" fill="black"/>
</g>
</svg>
