<svg width="198" height="123" viewBox="0 0 198 123" fill="none" xmlns="http://www.w3.org/2000/svg">
<path d="M45.8474 47.4449C45.8474 50.568 45.1307 53.435 43.6971 56.0461C42.2636 58.606 40.0621 60.6795 37.0926 62.2666C34.1232 63.8538 30.437 64.6473 26.034 64.6473H17.8936V84H4.76137V30.089H26.034C30.3346 30.089 33.9696 30.8313 36.9391 32.316C39.9085 33.8008 42.1356 35.8487 43.6203 38.4598C45.1051 41.0708 45.8474 44.0659 45.8474 47.4449ZM25.0356 54.203C27.5443 54.203 29.413 53.6142 30.6418 52.4367C31.8705 51.2591 32.4849 49.5952 32.4849 47.4449C32.4849 45.2946 31.8705 43.6307 30.6418 42.4532C29.413 41.2756 27.5443 40.6868 25.0356 40.6868H17.8936V54.203H25.0356Z" fill="#062C7F"/>
<path d="M72.1904 84.5376C68.2482 84.5376 64.7155 83.8976 61.5925 82.6177C58.4694 81.3377 55.9607 79.4434 54.0664 76.9347C52.2233 74.4261 51.2506 71.4054 51.1482 67.8728H65.1251C65.3299 69.8695 66.0211 71.4054 67.1986 72.4805C68.3762 73.5045 69.9121 74.0165 71.8064 74.0165C73.7519 74.0165 75.2878 73.5813 76.4142 72.7109C77.5405 71.7894 78.1037 70.535 78.1037 68.9479C78.1037 67.6168 77.6429 66.516 76.7214 65.6457C75.851 64.7753 74.7503 64.0585 73.4191 63.4954C72.1392 62.9322 70.2961 62.2922 67.8898 61.5755C64.4083 60.5003 61.5669 59.4252 59.3654 58.35C57.1639 57.2749 55.2696 55.6877 53.6825 53.5886C52.0953 51.4895 51.3018 48.7505 51.3018 45.3714C51.3018 40.3541 53.1193 36.4375 56.7543 33.6216C60.3893 30.7545 65.1251 29.321 70.9616 29.321C76.9006 29.321 81.6875 30.7545 85.3226 33.6216C88.9576 36.4375 90.9031 40.3797 91.1591 45.4482H76.9518C76.8494 43.7075 76.2094 42.3508 75.0318 41.378C73.8543 40.3541 72.344 39.8421 70.5009 39.8421C68.9137 39.8421 67.6338 40.2773 66.661 41.1476C65.6883 41.9668 65.2019 43.1699 65.2019 44.7571C65.2019 46.4978 66.0211 47.8545 67.6594 48.8273C69.2977 49.8 71.8576 50.8496 75.339 51.9759C78.8205 53.1535 81.6363 54.2798 83.7866 55.355C85.9881 56.4301 87.8824 57.9916 89.4696 60.0395C91.0567 62.0874 91.8503 64.7241 91.8503 67.9496C91.8503 71.0214 91.0567 73.8117 89.4696 76.3204C87.9336 78.829 85.6809 80.8258 82.7115 82.3105C79.742 83.7952 76.235 84.5376 72.1904 84.5376ZM113.064 40.6101V51.5151H130.65V61.6523H113.064V73.4789H132.954V84H99.9319V30.089H132.954V40.6101H113.064ZM166.976 84.5376C161.908 84.5376 157.249 83.36 152.999 81.0049C148.801 78.6499 145.448 75.3732 142.939 71.175C140.482 66.9256 139.253 62.1642 139.253 56.8909C139.253 51.6175 140.482 46.8818 142.939 42.6836C145.448 38.4854 148.801 35.2087 152.999 32.8536C157.249 30.4985 161.908 29.321 166.976 29.321C172.045 29.321 176.678 30.4985 180.876 32.8536C185.126 35.2087 188.454 38.4854 190.86 42.6836C193.317 46.8818 194.546 51.6175 194.546 56.8909C194.546 62.1642 193.317 66.9256 190.86 71.175C188.402 75.3732 185.075 78.6499 180.876 81.0049C176.678 83.36 172.045 84.5376 166.976 84.5376ZM166.976 72.5573C171.277 72.5573 174.707 71.1238 177.267 68.2567C179.878 65.3897 181.184 61.6011 181.184 56.8909C181.184 52.1295 179.878 48.3409 177.267 45.525C174.707 42.658 171.277 41.2244 166.976 41.2244C162.625 41.2244 159.143 42.6324 156.532 45.4482C153.972 48.2641 152.692 52.0783 152.692 56.8909C152.692 61.6523 153.972 65.4665 156.532 68.3335C159.143 71.1494 162.625 72.5573 166.976 72.5573Z" fill="white"/>
<path d="M63.6953 94.9563C66.736 93.6911 71.1628 91.2833 71.7298 90.5038C71.245 90.7306 70.7613 90.9601 70.2754 91.1837C65.3566 93.4475 60.2562 94.7955 54.9358 95.064C51.9033 95.2171 48.9073 94.9066 45.9692 94.0904C42.0466 93.0007 38.5298 90.9787 35.461 88.0002C34.5617 87.1273 33.7219 86.1897 32.9165 85.2091C32.6482 84.8824 32.6444 84.6671 32.9729 84.3809C33.6438 83.7965 34.2861 83.1703 34.9365 82.5565C35.045 82.4541 35.1914 82.3838 35.2435 82.1034C31.5183 80.5481 27.7826 78.9883 23.9103 77.3715C24.5971 81.9235 25.2646 86.3468 25.9292 90.7516C26.1823 90.7943 26.2786 90.6245 26.3975 90.514C26.9731 89.9792 27.5549 89.4519 28.1131 88.8948C28.3894 88.6191 28.5843 88.6337 28.8563 88.9136C30.4915 90.596 32.2596 92.0815 34.1699 93.349C37.8031 95.7594 41.7308 97.2037 45.9117 97.7346C50.1856 98.2772 54.4098 97.8366 58.5831 96.7044C60.3073 96.2367 62.0001 95.6547 63.6953 94.9563Z" fill="#062C7F"/>
<path d="M105.232 110.514V90.7951H112.125C113.499 90.7951 114.632 91.0326 115.524 91.5076C116.416 91.9762 117.081 92.6084 117.517 93.4043C117.954 94.1938 118.172 95.07 118.172 96.0328C118.172 96.8801 118.021 97.5798 117.719 98.1318C117.424 98.6838 117.033 99.1203 116.545 99.4412C116.063 99.7622 115.54 99.9997 114.975 100.154V100.346C115.579 100.385 116.185 100.597 116.795 100.982C117.405 101.367 117.915 101.919 118.326 102.638C118.737 103.357 118.942 104.236 118.942 105.276C118.942 106.264 118.717 107.153 118.268 107.943C117.819 108.732 117.11 109.358 116.14 109.82C115.171 110.283 113.91 110.514 112.356 110.514H105.232ZM107.619 108.395H112.356C113.916 108.395 115.023 108.094 115.678 107.49C116.339 106.881 116.67 106.142 116.67 105.276C116.67 104.608 116.5 103.992 116.16 103.427C115.819 102.856 115.335 102.4 114.706 102.06C114.077 101.713 113.332 101.54 112.472 101.54H107.619V108.395ZM107.619 99.4605H112.048C112.767 99.4605 113.416 99.3193 113.993 99.0368C114.577 98.7544 115.039 98.3564 115.38 97.8429C115.726 97.3294 115.9 96.7261 115.9 96.0328C115.9 95.1663 115.598 94.4313 114.995 93.828C114.391 93.2182 113.435 92.9133 112.125 92.9133H107.619V99.4605ZM131.878 104.467V95.7247H134.15V110.514H131.878V108.01H131.724C131.377 108.761 130.838 109.4 130.106 109.926C129.374 110.446 128.45 110.706 127.333 110.706C126.409 110.706 125.587 110.504 124.868 110.1C124.149 109.689 123.585 109.073 123.174 108.251C122.763 107.423 122.558 106.38 122.558 105.122V95.7247H124.83V104.968C124.83 106.046 125.131 106.906 125.735 107.548C126.345 108.19 127.121 108.511 128.065 108.511C128.63 108.511 129.204 108.367 129.788 108.078C130.379 107.789 130.873 107.346 131.271 106.749C131.675 106.152 131.878 105.391 131.878 104.467ZM138.312 110.514V95.7247H140.584V110.514H138.312ZM139.467 93.2599C139.024 93.2599 138.642 93.1091 138.321 92.8074C138.007 92.5057 137.85 92.143 137.85 91.7194C137.85 91.2958 138.007 90.9331 138.321 90.6314C138.642 90.3297 139.024 90.1789 139.467 90.1789C139.91 90.1789 140.289 90.3297 140.603 90.6314C140.924 90.9331 141.085 91.2958 141.085 91.7194C141.085 92.143 140.924 92.5057 140.603 92.8074C140.289 93.1091 139.91 93.2599 139.467 93.2599ZM147.018 90.7951V110.514H144.746V90.7951H147.018ZM156.764 110.822C155.532 110.822 154.444 110.51 153.5 109.888C152.557 109.259 151.818 108.373 151.286 107.23C150.753 106.081 150.487 104.724 150.487 103.158C150.487 101.604 150.753 100.256 151.286 99.1139C151.818 97.9713 152.56 97.0887 153.51 96.4661C154.46 95.8435 155.557 95.5322 156.803 95.5322C157.765 95.5322 158.526 95.6926 159.085 96.0136C159.649 96.3281 160.079 96.6876 160.375 97.0919C160.676 97.4899 160.911 97.8173 161.078 98.074H161.27V90.7951H163.542V110.514H161.347V108.241H161.078C160.911 108.511 160.673 108.851 160.365 109.262C160.057 109.666 159.617 110.029 159.046 110.35C158.475 110.665 157.714 110.822 156.764 110.822ZM157.072 108.781C157.984 108.781 158.754 108.543 159.383 108.068C160.012 107.587 160.49 106.922 160.818 106.075C161.145 105.221 161.309 104.236 161.309 103.119C161.309 102.015 161.148 101.049 160.827 100.221C160.506 99.3867 160.031 98.7384 159.402 98.2762C158.773 97.8076 157.997 97.5734 157.072 97.5734C156.109 97.5734 155.307 97.8205 154.665 98.3147C154.03 98.8026 153.552 99.4669 153.231 100.308C152.916 101.142 152.759 102.079 152.759 103.119C152.759 104.172 152.919 105.128 153.24 105.988C153.568 106.842 154.049 107.523 154.684 108.03C155.326 108.53 156.122 108.781 157.072 108.781ZM174.22 110.822C172.795 110.822 171.566 110.507 170.532 109.878C169.505 109.243 168.713 108.357 168.154 107.221C167.602 106.078 167.326 104.75 167.326 103.235C167.326 101.72 167.602 100.385 168.154 99.2294C168.713 98.0676 169.489 97.1625 170.484 96.5142C171.486 95.8595 172.654 95.5322 173.989 95.5322C174.759 95.5322 175.52 95.6605 176.271 95.9173C177.022 96.1741 177.706 96.5913 178.322 97.169C178.938 97.7402 179.429 98.4977 179.795 99.4412C180.161 100.385 180.344 101.547 180.344 102.927V103.889H168.944V101.925H178.033C178.033 101.091 177.866 100.346 177.532 99.6916C177.205 99.0368 176.736 98.5201 176.126 98.1414C175.523 97.7627 174.811 97.5734 173.989 97.5734C173.084 97.5734 172.301 97.798 171.64 98.2473C170.985 98.6902 170.481 99.2679 170.128 99.9804C169.775 100.693 169.599 101.457 169.599 102.272V103.581C169.599 104.698 169.791 105.645 170.176 106.422C170.568 107.192 171.11 107.779 171.803 108.184C172.497 108.582 173.302 108.781 174.22 108.781C174.817 108.781 175.356 108.697 175.838 108.53C176.325 108.357 176.746 108.1 177.099 107.76C177.452 107.413 177.725 106.983 177.917 106.47L180.113 107.086C179.881 107.831 179.493 108.485 178.948 109.05C178.402 109.609 177.728 110.045 176.926 110.36C176.123 110.668 175.221 110.822 174.22 110.822ZM183.8 110.514V95.7247H185.995V97.9585H186.149C186.419 97.2267 186.907 96.633 187.613 96.1773C188.319 95.7215 189.115 95.4937 190.001 95.4937C190.168 95.4937 190.376 95.4969 190.627 95.5033C190.877 95.5097 191.066 95.5193 191.195 95.5322V97.8429C191.118 97.8237 190.941 97.7948 190.665 97.7563C190.396 97.7114 190.11 97.6889 189.808 97.6889C189.089 97.6889 188.447 97.8397 187.883 98.1414C187.324 98.4367 186.881 98.8475 186.554 99.3738C186.233 99.8938 186.072 100.487 186.072 101.155V110.514H183.8Z" fill="white"/>
</svg>
