<svg width="262" height="128" viewBox="0 0 262 128" fill="none" xmlns="http://www.w3.org/2000/svg">
<path d="M66.9403 30.2811C66.9403 34.3766 66.0004 38.1364 64.1205 41.5605C62.2405 44.9175 59.3535 47.6367 55.4594 49.718C51.5654 51.7993 46.7313 52.84 40.9573 52.84H30.2821V78.2188H13.0608V7.52079H40.9573C46.597 7.52079 51.3639 8.49431 55.258 10.4414C59.1521 12.3884 62.0727 15.074 64.0197 18.4981C65.9668 21.9222 66.9403 25.8499 66.9403 30.2811ZM39.6481 39.1435C42.9379 39.1435 45.3885 38.3714 46.9999 36.8272C48.6112 35.283 49.4169 33.101 49.4169 30.2811C49.4169 27.4612 48.6112 25.2792 46.9999 23.735C45.3885 22.1908 42.9379 21.4187 39.6481 21.4187H30.2821V39.1435H39.6481Z" fill="#003E15"/>
<path d="M101.486 78.9237C96.3162 78.9237 91.6836 78.0845 87.5881 76.406C83.4926 74.7275 80.2027 72.2433 77.7186 68.9535C75.3015 65.6637 74.0259 61.7024 73.8916 57.0698H92.2207C92.4893 59.6882 93.3957 61.7024 94.9399 63.1123C96.4841 64.4551 98.4983 65.1265 100.982 65.1265C103.534 65.1265 105.548 64.5558 107.025 63.4145C108.502 62.206 109.241 60.561 109.241 58.4797C109.241 56.7341 108.636 55.2906 107.428 54.1492C106.286 53.0078 104.843 52.0679 103.097 51.3294C101.419 50.5908 99.0018 49.7516 95.8463 48.8116C91.2808 47.4017 87.5545 45.9918 84.6675 44.5818C81.7805 43.1719 79.2964 41.0906 77.215 38.3378C75.1337 35.5851 74.093 31.9932 74.093 27.5619C74.093 20.9823 76.4765 15.8461 81.2434 12.1534C86.0103 8.3936 92.2207 6.5137 99.8746 6.5137C107.663 6.5137 113.94 8.3936 118.707 12.1534C123.474 15.8461 126.025 21.0158 126.361 27.6627H107.73C107.596 25.3799 106.756 23.6007 105.212 22.3251C103.668 20.9823 101.687 20.3109 99.2704 20.3109C97.189 20.3109 95.5106 20.8816 94.2349 22.0229C92.9593 23.0972 92.3214 24.6749 92.3214 26.7563C92.3214 29.039 93.3957 30.8182 95.5441 32.0939C97.6926 33.3695 101.05 34.7459 105.615 36.223C110.181 37.7672 113.873 39.2442 116.693 40.6542C119.58 42.0641 122.064 44.1119 124.146 46.7974C126.227 49.483 127.268 52.9407 127.268 57.1705C127.268 61.1989 126.227 64.858 124.146 68.1478C122.131 71.4377 119.177 74.0561 115.283 76.0031C111.389 77.9502 106.79 78.9237 101.486 78.9237ZM155.087 21.318V35.6187H178.149V48.9123H155.087V64.4216H181.171V78.2188H137.866V7.52079H181.171V21.318H155.087ZM225.786 78.9237C219.14 78.9237 213.03 77.3795 207.457 74.2911C201.952 71.2027 197.554 66.9057 194.264 61.4003C191.042 55.8277 189.43 49.5837 189.43 42.6684C189.43 35.753 191.042 29.5426 194.264 24.0371C197.554 18.5317 201.952 14.2347 207.457 11.1463C213.03 8.05791 219.14 6.5137 225.786 6.5137C232.433 6.5137 238.509 8.05791 244.015 11.1463C249.587 14.2347 253.952 18.5317 257.107 24.0371C260.33 29.5426 261.941 35.753 261.941 42.6684C261.941 49.5837 260.33 55.8277 257.107 61.4003C253.884 66.9057 249.52 71.2027 244.015 74.2911C238.509 77.3795 232.433 78.9237 225.786 78.9237ZM225.786 63.2131C231.426 63.2131 235.925 61.3331 239.282 57.5733C242.706 53.8135 244.418 48.8452 244.418 42.6684C244.418 36.4244 242.706 31.456 239.282 27.7634C235.925 24.0035 231.426 22.1236 225.786 22.1236C220.08 22.1236 215.514 23.97 212.09 27.6627C208.733 31.3553 207.055 36.3572 207.055 42.6684C207.055 48.9123 208.733 53.9142 212.09 57.674C215.514 61.3667 220.08 63.2131 225.786 63.2131Z" fill="white"/>
<path d="M88.2133 89.2924C92.0991 87.6775 97.756 84.6042 98.4806 83.6093C97.8611 83.8988 97.2429 84.1917 96.622 84.4771C90.3362 87.3666 83.8185 89.0871 77.0195 89.4299C73.1442 89.6252 69.3156 89.229 65.561 88.1872C60.5483 86.7964 56.0541 84.2155 52.1325 80.4138C50.9833 79.2997 49.9101 78.1028 48.8809 76.8513C48.538 76.4343 48.5332 76.1594 48.953 75.7942C49.8104 75.0482 50.6311 74.2489 51.4623 73.4655C51.601 73.3348 51.788 73.2452 51.8545 72.8872C47.0941 70.902 42.3203 68.9112 37.3719 66.8475C38.2496 72.6576 39.1025 78.3034 39.9518 83.9257C40.2753 83.9801 40.3983 83.7633 40.5503 83.6223C41.2858 82.9397 42.0293 82.2666 42.7426 81.5557C43.0958 81.2037 43.3448 81.2223 43.6924 81.5796C45.782 83.727 48.0414 85.6231 50.4826 87.2408C55.1255 90.3175 60.1448 92.1609 65.4875 92.8385C70.9492 93.5312 76.3472 92.9687 81.6804 91.5237C83.8837 90.9267 86.047 90.1838 88.2133 89.2924Z" fill="#003E15"/>
<path d="M201.939 94.2701H198.808C198.623 93.3694 198.299 92.5782 197.836 91.8963C197.381 91.2145 196.826 90.6421 196.169 90.1792C195.521 89.7078 194.801 89.3542 194.01 89.1186C193.219 88.8829 192.394 88.765 191.535 88.765C189.97 88.765 188.551 89.1606 187.28 89.9519C186.018 90.7431 185.012 91.909 184.263 93.4494C183.522 94.9898 183.152 96.8795 183.152 99.1186C183.152 101.358 183.522 103.247 184.263 104.788C185.012 106.328 186.018 107.494 187.28 108.285C188.551 109.076 189.97 109.472 191.535 109.472C192.394 109.472 193.219 109.354 194.01 109.119C194.801 108.883 195.521 108.534 196.169 108.071C196.826 107.599 197.381 107.023 197.836 106.341C198.299 105.651 198.623 104.859 198.808 103.967H201.939C201.704 105.289 201.274 106.471 200.652 107.515C200.029 108.559 199.254 109.447 198.328 110.179C197.402 110.903 196.363 111.454 195.21 111.833C194.065 112.212 192.84 112.401 191.535 112.401C189.33 112.401 187.369 111.863 185.652 110.785C183.934 109.708 182.583 108.176 181.598 106.189C180.614 104.203 180.121 101.846 180.121 99.1186C180.121 96.3913 180.614 94.0344 181.598 92.0479C182.583 90.0613 183.934 88.5293 185.652 87.4519C187.369 86.3745 189.33 85.8357 191.535 85.8357C192.84 85.8357 194.065 86.0251 195.21 86.4039C196.363 86.7827 197.402 87.3383 198.328 88.0706C199.254 88.7945 200.029 89.6783 200.652 90.7221C201.274 91.7574 201.704 92.9401 201.939 94.2701ZM214.474 112.452C212.723 112.452 211.187 112.035 209.866 111.202C208.552 110.369 207.525 109.203 206.785 107.704C206.052 106.206 205.686 104.455 205.686 102.452C205.686 100.432 206.052 98.6682 206.785 97.1615C207.525 95.6548 208.552 94.4847 209.866 93.6514C211.187 92.8181 212.723 92.4014 214.474 92.4014C216.225 92.4014 217.757 92.8181 219.07 93.6514C220.392 94.4847 221.419 95.6548 222.151 97.1615C222.892 98.6682 223.262 100.432 223.262 102.452C223.262 104.455 222.892 106.206 222.151 107.704C221.419 109.203 220.392 110.369 219.07 111.202C217.757 112.035 216.225 112.452 214.474 112.452ZM214.474 109.775C215.804 109.775 216.898 109.434 217.757 108.752C218.616 108.071 219.251 107.174 219.664 106.063C220.076 104.952 220.282 103.748 220.282 102.452C220.282 101.156 220.076 99.9477 219.664 98.8282C219.251 97.7086 218.616 96.8037 217.757 96.1135C216.898 95.4233 215.804 95.0782 214.474 95.0782C213.144 95.0782 212.05 95.4233 211.191 96.1135C210.333 96.8037 209.697 97.7086 209.285 98.8282C208.872 99.9477 208.666 101.156 208.666 102.452C208.666 103.748 208.872 104.952 209.285 106.063C209.697 107.174 210.333 108.071 211.191 108.752C212.05 109.434 213.144 109.775 214.474 109.775ZM227.811 112.048V92.6539H230.689V95.5832H230.891C231.245 94.6236 231.885 93.845 232.811 93.2473C233.737 92.6497 234.78 92.3509 235.942 92.3509C236.161 92.3509 236.434 92.3551 236.763 92.3635C237.091 92.3719 237.339 92.3846 237.508 92.4014V95.4317C237.407 95.4064 237.175 95.3686 236.813 95.3181C236.46 95.2591 236.085 95.2297 235.689 95.2297C234.747 95.2297 233.905 95.4275 233.164 95.8231C232.432 96.2103 231.851 96.749 231.422 97.4393C231.001 98.1211 230.79 98.8997 230.79 99.7751V112.048H227.811ZM248.581 112.452C246.712 112.452 245.1 112.039 243.745 111.215C242.398 110.381 241.359 109.22 240.626 107.73C239.902 106.231 239.54 104.489 239.54 102.502C239.54 100.516 239.902 98.765 240.626 97.2499C241.359 95.7263 242.377 94.5394 243.682 93.6893C244.995 92.8307 246.527 92.4014 248.278 92.4014C249.288 92.4014 250.285 92.5697 251.27 92.9064C252.255 93.2431 253.152 93.7903 253.96 94.5479C254.768 95.297 255.412 96.2903 255.891 97.5277C256.371 98.765 256.611 100.289 256.611 102.098V103.361H241.662V100.785H253.581C253.581 99.6909 253.362 98.7145 252.924 97.8559C252.495 96.9973 251.88 96.3197 251.081 95.8231C250.29 95.3265 249.355 95.0782 248.278 95.0782C247.091 95.0782 246.064 95.3728 245.197 95.962C244.338 96.5428 243.678 97.3004 243.215 98.2347C242.752 99.1691 242.52 100.171 242.52 101.24V102.957C242.52 104.422 242.773 105.663 243.278 106.682C243.791 107.692 244.503 108.462 245.412 108.992C246.321 109.514 247.377 109.775 248.581 109.775C249.364 109.775 250.071 109.666 250.702 109.447C251.342 109.22 251.893 108.883 252.356 108.437C252.819 107.982 253.177 107.418 253.429 106.745L256.308 107.553C256.005 108.529 255.496 109.388 254.78 110.129C254.065 110.861 253.181 111.433 252.129 111.846C251.077 112.25 249.894 112.452 248.581 112.452Z" fill="white"/>
</svg>
