<svg width="163" height="81" viewBox="0 0 163 81" fill="none" xmlns="http://www.w3.org/2000/svg">
<g opacity="0.4">
<path d="M37.7998 19.2521C37.7998 21.827 37.2088 24.1908 36.0269 26.3435C34.845 28.4541 33.03 30.1636 30.5817 31.4721C28.1335 32.7807 25.0943 33.4349 21.4642 33.4349H14.7527V49.3906H3.92561V4.94262H21.4642C25.0099 4.94262 28.0069 5.55468 30.4551 6.77879C32.9033 8.0029 34.7395 9.69134 35.9636 11.8441C37.1877 13.9968 37.7998 16.4662 37.7998 19.2521ZM20.6411 24.8239C22.7094 24.8239 24.2501 24.3385 25.2632 23.3676C26.2762 22.3968 26.7828 21.0249 26.7828 19.2521C26.7828 17.4792 26.2762 16.1074 25.2632 15.1365C24.2501 14.1657 22.7094 13.6803 20.6411 13.6803H14.7527V24.8239H20.6411Z" fill="#2BCE82"/>
<path d="M59.5188 49.8338C56.2685 49.8338 53.356 49.3062 50.7811 48.2509C48.2062 47.1957 46.1379 45.6339 44.5761 43.5655C43.0565 41.4972 42.2545 39.0068 42.1701 36.0942H53.6937C53.8625 37.7404 54.4323 39.0068 55.4032 39.8932C56.374 40.7374 57.6404 41.1595 59.2022 41.1595C60.8062 41.1595 62.0725 40.8007 63.0011 40.0831C63.9298 39.3233 64.3941 38.2892 64.3941 36.9806C64.3941 35.8832 64.0142 34.9756 63.2544 34.258C62.5368 33.5405 61.6293 32.9495 60.5318 32.4852C59.4765 32.0209 57.957 31.4932 55.973 30.9023C53.1027 30.0159 50.76 29.1294 48.9449 28.243C47.1299 27.3566 45.5681 26.048 44.2595 24.3174C42.951 22.5867 42.2967 20.3285 42.2967 17.5426C42.2967 13.4059 43.7952 10.1768 46.7922 7.85517C49.7892 5.49136 53.6937 4.30946 58.5057 4.30946C63.4021 4.30946 67.3489 5.49136 70.3458 7.85517C73.3428 10.1768 74.9468 13.427 75.1579 17.6059H63.4444C63.3599 16.1707 62.8323 15.0521 61.8615 14.2501C60.8906 13.4059 59.6454 12.9838 58.1258 12.9838C56.8173 12.9838 55.762 13.3426 54.96 14.0602C54.158 14.7355 53.757 15.7275 53.757 17.036C53.757 18.4712 54.4323 19.5898 55.7831 20.3918C57.1338 21.1938 59.2444 22.0591 62.1147 22.9878C64.9851 23.9586 67.3066 24.8872 69.0795 25.7737C70.8946 26.6601 72.4564 27.9475 73.7649 29.636C75.0734 31.3244 75.7277 33.4982 75.7277 36.1575C75.7277 38.6902 75.0734 40.9907 73.7649 43.059C72.4986 45.1273 70.6413 46.7736 68.1931 47.9977C65.7448 49.2218 62.8534 49.8338 59.5188 49.8338ZM93.2178 13.6169V22.6079H107.717V30.9656H93.2178V40.7163H109.617V49.3906H82.3908V4.94262H109.617V13.6169H93.2178ZM137.667 49.8338C133.488 49.8338 129.647 48.863 126.143 46.9213C122.682 44.9796 119.917 42.2781 117.849 38.8168C115.823 35.3133 114.81 31.3877 114.81 27.04C114.81 22.6923 115.823 18.7878 117.849 15.3265C119.917 11.8652 122.682 9.16371 126.143 7.22201C129.647 5.28031 133.488 4.30946 137.667 4.30946C141.846 4.30946 145.666 5.28031 149.127 7.22201C152.631 9.16371 155.374 11.8652 157.358 15.3265C159.384 18.7878 160.397 22.6923 160.397 27.04C160.397 31.3877 159.384 35.3133 157.358 38.8168C155.332 42.2781 152.588 44.9796 149.127 46.9213C145.666 48.863 141.846 49.8338 137.667 49.8338ZM137.667 39.9565C141.213 39.9565 144.041 38.7746 146.151 36.4108C148.304 34.047 149.38 30.9234 149.38 27.04C149.38 23.1144 148.304 19.9908 146.151 17.6692C144.041 15.3054 141.213 14.1235 137.667 14.1235C134.079 14.1235 131.209 15.2843 129.056 17.6059C126.945 19.9275 125.89 23.0722 125.89 27.04C125.89 30.9656 126.945 34.1103 129.056 36.4741C131.209 38.7957 134.079 39.9565 137.667 39.9565Z" fill="black"/>
<path d="M52.5148 57.679C55.0218 56.6358 58.6715 54.6507 59.139 54.008C58.7393 54.195 58.3405 54.3842 57.9399 54.5686C53.8845 56.435 49.6794 57.5464 45.2929 57.7678C42.7927 57.894 40.3225 57.638 37.9002 56.9651C34.6661 56.0667 31.7666 54.3996 29.2365 51.9439C28.495 51.2243 27.8026 50.4512 27.1386 49.6427C26.9174 49.3734 26.9143 49.1958 27.1851 48.9599C27.7383 48.478 28.2678 47.9618 28.8041 47.4557C28.8935 47.3713 29.0142 47.3134 29.0571 47.0822C25.9858 45.7998 22.9059 44.5139 19.7133 43.1809C20.2796 46.9338 20.8298 50.5807 21.3778 54.2124C21.5865 54.2476 21.6659 54.1075 21.7639 54.0164C22.2385 53.5755 22.7181 53.1407 23.1784 52.6815C23.4062 52.4542 23.5668 52.4662 23.7911 52.6969C25.1393 54.0841 26.597 55.3088 28.172 56.3538C31.1675 58.3411 34.4058 59.5319 37.8528 59.9696C41.3765 60.417 44.8592 60.0537 48.3 59.1203C49.7215 58.7346 51.1172 58.2548 52.5148 57.679Z" fill="#2BCE82"/>
<path d="M122.557 59.8924H120.588C120.472 59.3261 120.268 58.8287 119.977 58.4C119.691 57.9714 119.342 57.6115 118.929 57.3204C118.521 57.0241 118.069 56.8018 117.572 56.6536C117.074 56.5054 116.555 56.4314 116.016 56.4314C115.031 56.4314 114.14 56.6801 113.341 57.1775C112.547 57.675 111.914 58.408 111.443 59.3764C110.978 60.3449 110.745 61.533 110.745 62.9407C110.745 64.3484 110.978 65.5364 111.443 66.5049C111.914 67.4733 112.547 68.2063 113.341 68.7038C114.14 69.2012 115.031 69.4499 116.016 69.4499C116.555 69.4499 117.074 69.3759 117.572 69.2277C118.069 69.0795 118.521 68.8599 118.929 68.5688C119.342 68.2725 119.691 67.9099 119.977 67.4813C120.268 67.0473 120.472 66.5499 120.588 65.9889H122.557C122.409 66.8198 122.139 67.5633 121.747 68.2195C121.355 68.8758 120.869 69.4341 120.286 69.8945C119.704 70.3496 119.051 70.6962 118.326 70.9344C117.606 71.1725 116.836 71.2916 116.016 71.2916C114.629 71.2916 113.396 70.9529 112.316 70.2755C111.237 69.5981 110.388 68.635 109.768 67.386C109.149 66.1371 108.84 64.6553 108.84 62.9407C108.84 61.226 109.149 59.7442 109.768 58.4953C110.388 57.2463 111.237 56.2832 112.316 55.6058C113.396 54.9284 114.629 54.5897 116.016 54.5897C116.836 54.5897 117.606 54.7088 118.326 54.9469C119.051 55.1851 119.704 55.5343 120.286 55.9948C120.869 56.4499 121.355 57.0056 121.747 57.6618C122.139 58.3127 122.409 59.0562 122.557 59.8924ZM130.437 71.3234C129.337 71.3234 128.371 71.0614 127.54 70.5375C126.714 70.0136 126.069 69.2806 125.603 68.3386C125.143 67.3966 124.912 66.2959 124.912 65.0363C124.912 63.7662 125.143 62.6575 125.603 61.7102C126.069 60.7629 126.714 60.0273 127.54 59.5034C128.371 58.9795 129.337 58.7175 130.437 58.7175C131.538 58.7175 132.501 58.9795 133.327 59.5034C134.158 60.0273 134.803 60.7629 135.264 61.7102C135.729 62.6575 135.962 63.7662 135.962 65.0363C135.962 66.2959 135.729 67.3966 135.264 68.3386C134.803 69.2806 134.158 70.0136 133.327 70.5375C132.501 71.0614 131.538 71.3234 130.437 71.3234ZM130.437 69.6405C131.273 69.6405 131.961 69.4261 132.501 68.9975C133.041 68.5688 133.441 68.0052 133.7 67.3066C133.959 66.6081 134.089 65.8513 134.089 65.0363C134.089 64.2213 133.959 63.4619 133.7 62.7581C133.441 62.0542 133.041 61.4853 132.501 61.0514C131.961 60.6174 131.273 60.4004 130.437 60.4004C129.601 60.4004 128.913 60.6174 128.373 61.0514C127.834 61.4853 127.434 62.0542 127.175 62.7581C126.915 63.4619 126.786 64.2213 126.786 65.0363C126.786 65.8513 126.915 66.6081 127.175 67.3066C127.434 68.0052 127.834 68.5688 128.373 68.9975C128.913 69.4261 129.601 69.6405 130.437 69.6405ZM138.822 71.0693V58.8763H140.632V60.718H140.759C140.981 60.1147 141.383 59.6251 141.966 59.2494C142.548 58.8737 143.204 58.6858 143.934 58.6858C144.072 58.6858 144.244 58.6884 144.45 58.6937C144.657 58.699 144.813 58.707 144.919 58.7175V60.6227C144.855 60.6068 144.709 60.583 144.482 60.5513C144.26 60.5142 144.024 60.4957 143.775 60.4957C143.183 60.4957 142.654 60.6201 142.188 60.8688C141.727 61.1122 141.362 61.4509 141.092 61.8849C140.828 62.3135 140.695 62.8031 140.695 63.3534V71.0693H138.822ZM151.88 71.3234C150.705 71.3234 149.692 71.064 148.84 70.5454C147.993 70.0215 147.34 69.2912 146.879 68.3545C146.424 67.4125 146.197 66.317 146.197 65.0681C146.197 63.8191 146.424 62.7184 146.879 61.7658C147.34 60.8079 147.98 60.0617 148.8 59.5272C149.626 58.9874 150.589 58.7175 151.69 58.7175C152.325 58.7175 152.952 58.8234 153.571 59.0351C154.19 59.2468 154.754 59.5907 155.262 60.067C155.77 60.538 156.175 61.1625 156.477 61.9404C156.778 62.7184 156.929 63.6763 156.929 64.8141V65.6079H147.53V63.9885H155.024C155.024 63.3005 154.886 62.6866 154.611 62.1468C154.341 61.607 153.955 61.181 153.452 60.8688C152.955 60.5566 152.367 60.4004 151.69 60.4004C150.944 60.4004 150.298 60.5857 149.753 60.9561C149.213 61.3213 148.798 61.7976 148.507 62.385C148.216 62.9724 148.07 63.6022 148.07 64.2743V65.3539C148.07 66.2747 148.229 67.0553 148.546 67.6956C148.869 68.3307 149.316 68.8149 149.888 69.1483C150.459 69.4764 151.124 69.6405 151.88 69.6405C152.372 69.6405 152.817 69.5717 153.214 69.4341C153.616 69.2912 153.963 69.0795 154.254 68.799C154.545 68.5132 154.77 68.1587 154.929 67.7353L156.738 68.2433C156.548 68.8572 156.228 69.397 155.778 69.8627C155.328 70.3231 154.772 70.683 154.111 70.9423C153.449 71.1963 152.706 71.3234 151.88 71.3234Z" fill="black"/>
</g>
</svg>
